<?xml version="1.0" encoding="UTF-8"?>
<svg width="144px" height="111px" viewBox="0 0 144 111" version="1.1" xmlns="http://www.w3.org/2000/svg" xmlns:xlink="http://www.w3.org/1999/xlink">
    <!-- Generator: Sketch 42 (36781) - http://www.bohemiancoding.com/sketch -->
    <title>Group Copy</title>
    <desc>Created with Sketch.</desc>
    <defs>
        <rect id="path-1" x="0" y="0" width="144" height="111" rx="8"></rect>
        <mask id="mask-2" maskContentUnits="userSpaceOnUse" maskUnits="objectBoundingBox" x="0" y="0" width="144" height="111" fill="white">
            <use xlink:href="#path-1"></use>
        </mask>
    </defs>
    <g id="Page-1" stroke="none" stroke-width="1" fill="none" fill-rule="evenodd">
        <g id="Group-Copy">
            <path d="M21.7714844,25.8486328 L21.7714844,21.2138672 L19.1806641,25.8486328 L21.7714844,25.8486328 Z M21.0332031,29 C20.814452,29 20.6663415,28.9646813 20.5888672,28.894043 C20.5113928,28.8234046 20.4726562,28.6946624 20.4726562,28.5078125 C20.4726562,28.3437492 20.5125322,28.2241215 20.5922852,28.1489258 C20.6720382,28.0737301 20.8007804,28.0361328 20.9785156,28.0361328 L21.7714844,28.0361328 L21.7714844,26.8876953 L18.5791016,26.8876953 C18.4651687,26.8876953 18.3763024,26.8512373 18.3125,26.7783203 C18.2486976,26.7054033 18.2167969,26.6005866 18.2167969,26.4638672 L18.2167969,25.9921875 C18.2167969,25.8098949 18.2828769,25.6184906 18.4150391,25.4179688 C18.4378256,25.3815102 18.4560546,25.3518881 18.4697266,25.3291016 L21.3544922,20.4345703 C21.4182946,20.3206375 21.4707029,20.2477215 21.5117188,20.2158203 C21.5527346,20.1839191 21.6074215,20.1679688 21.6757812,20.1679688 C21.7031251,20.1679688 21.7509762,20.172526 21.8193359,20.1816406 L21.8740234,20.1953125 L22.5712891,20.3046875 C22.6350915,20.3138021 22.6863605,20.3491208 22.7250977,20.4106445 C22.7638348,20.4721683 22.7832031,20.5530594 22.7832031,20.6533203 L22.7832031,25.8486328 L23.1318359,25.8486328 C23.2320969,25.8486328 23.30957,25.8087569 23.3642578,25.7290039 C23.4189456,25.6492509 23.4804684,25.609375 23.5488281,25.609375 C23.6399744,25.609375 23.7174476,25.6435543 23.78125,25.7119141 C23.8450524,25.7802738 23.8769531,25.8645828 23.8769531,25.9648438 C23.8769531,26.0058596 23.8746745,26.0434569 23.8701172,26.0776367 C23.8655599,26.1118166 23.8564454,26.1471352 23.8427734,26.1835938 L23.7880859,26.4638672 C23.7561847,26.6279305 23.709473,26.739583 23.6479492,26.7988281 C23.5864255,26.8580732 23.489584,26.8876953 23.3574219,26.8876953 L22.7832031,26.8876953 L22.7832031,28.0361328 L23.0224609,28.0361328 C23.3141291,28.0361328 23.5146479,28.0714515 23.6240234,28.1420898 C23.733399,28.2127282 23.7880859,28.3346346 23.7880859,28.5078125 C23.7880859,28.6718758 23.7425135,28.7949215 23.6513672,28.8769531 C23.5602209,28.9589848 23.4235035,29 23.2412109,29 L21.0332031,29 Z M27.9648438,21.6650391 L27.831543,21.6855469 C27.8019204,21.6901042 27.7757163,21.6923828 27.7529297,21.6923828 C27.6116529,21.6923828 27.4965825,21.6525069 27.4077148,21.5727539 C27.3188472,21.4930009 27.2744141,21.3870449 27.2744141,21.2548828 C27.2744141,21.1455073 27.3131507,21.0498051 27.390625,20.9677734 C27.4680993,20.8857418 27.5797519,20.824219 27.7255859,20.7832031 L29.7558594,20.2363281 C29.8059898,20.2226562 29.8549802,20.2124024 29.902832,20.2055664 C29.9506838,20.1987304 29.9996742,20.1953125 30.0498047,20.1953125 C30.1363937,20.1953125 30.2047524,20.2351884 30.2548828,20.3149414 C30.3050133,20.3946944 30.3300781,20.502929 30.3300781,20.6396484 L30.3300781,28.0361328 L31.4238281,28.0361328 C31.8294291,28.0361328 32.0869135,28.0691728 32.1962891,28.1352539 C32.3056646,28.201335 32.3603516,28.3255199 32.3603516,28.5078125 C32.3603516,28.6718758 32.3147791,28.7949215 32.2236328,28.8769531 C32.1324865,28.9589848 31.9957691,29 31.8134766,29 L27.7255859,29 C27.5432934,29 27.406576,28.9589848 27.3154297,28.8769531 C27.2242834,28.7949215 27.1787109,28.6718758 27.1787109,28.5078125 C27.1787109,28.3255199 27.2333979,28.201335 27.3427734,28.1352539 C27.452149,28.0691728 27.7096334,28.0361328 28.1152344,28.0361328 L29.25,28.0361328 L29.25,21.3574219 L27.9648438,21.6650391 Z M45.984375,18.1787109 L46.8115234,18.1787109 L46.8115234,32.4453125 L45.984375,32.4453125 L45.984375,18.1787109 Z M45.984375,33.1787109 L46.8115234,33.1787109 L46.8115234,47.4453125 L45.984375,47.4453125 L45.984375,33.1787109 Z M21.7714844,55.8486328 L21.7714844,51.2138672 L19.1806641,55.8486328 L21.7714844,55.8486328 Z M21.0332031,59 C20.814452,59 20.6663415,58.9646813 20.5888672,58.894043 C20.5113928,58.8234046 20.4726562,58.6946624 20.4726562,58.5078125 C20.4726562,58.3437492 20.5125322,58.2241215 20.5922852,58.1489258 C20.6720382,58.0737301 20.8007804,58.0361328 20.9785156,58.0361328 L21.7714844,58.0361328 L21.7714844,56.8876953 L18.5791016,56.8876953 C18.4651687,56.8876953 18.3763024,56.8512373 18.3125,56.7783203 C18.2486976,56.7054033 18.2167969,56.6005866 18.2167969,56.4638672 L18.2167969,55.9921875 C18.2167969,55.8098949 18.2828769,55.6184906 18.4150391,55.4179688 C18.4378256,55.3815102 18.4560546,55.3518881 18.4697266,55.3291016 L21.3544922,50.4345703 C21.4182946,50.3206375 21.4707029,50.2477215 21.5117188,50.2158203 C21.5527346,50.1839191 21.6074215,50.1679688 21.6757812,50.1679688 C21.7031251,50.1679688 21.7509762,50.172526 21.8193359,50.1816406 L21.8740234,50.1953125 L22.5712891,50.3046875 C22.6350915,50.3138021 22.6863605,50.3491208 22.7250977,50.4106445 C22.7638348,50.4721683 22.7832031,50.5530594 22.7832031,50.6533203 L22.7832031,55.8486328 L23.1318359,55.8486328 C23.2320969,55.8486328 23.30957,55.8087569 23.3642578,55.7290039 C23.4189456,55.6492509 23.4804684,55.609375 23.5488281,55.609375 C23.6399744,55.609375 23.7174476,55.6435543 23.78125,55.7119141 C23.8450524,55.7802738 23.8769531,55.8645828 23.8769531,55.9648438 C23.8769531,56.0058596 23.8746745,56.0434569 23.8701172,56.0776367 C23.8655599,56.1118166 23.8564454,56.1471352 23.8427734,56.1835938 L23.7880859,56.4638672 C23.7561847,56.6279305 23.709473,56.739583 23.6479492,56.7988281 C23.5864255,56.8580732 23.489584,56.8876953 23.3574219,56.8876953 L22.7832031,56.8876953 L22.7832031,58.0361328 L23.0224609,58.0361328 C23.3141291,58.0361328 23.5146479,58.0714515 23.6240234,58.1420898 C23.733399,58.2127282 23.7880859,58.3346346 23.7880859,58.5078125 C23.7880859,58.6718758 23.7425135,58.7949215 23.6513672,58.8769531 C23.5602209,58.9589848 23.4235035,59 23.2412109,59 L21.0332031,59 Z M27.2197266,59 C26.9781889,59 26.799317,58.9510096 26.6831055,58.8530273 C26.566894,58.7550451 26.5087891,58.6035167 26.5087891,58.3984375 C26.5087891,58.1022121 26.9462847,57.546228 27.8212891,56.7304688 L28.0195312,56.5390625 C28.1516934,56.4114577 28.3430977,56.2291679 28.59375,55.9921875 C30.1705808,54.506503 30.9589844,53.424157 30.9589844,52.7451172 C30.9589844,52.2574845 30.8199884,51.8621434 30.5419922,51.559082 C30.263996,51.2560206 29.9039736,51.1044922 29.4619141,51.1044922 C29.1748033,51.1044922 28.9002292,51.1637364 28.6381836,51.2822266 C28.376138,51.4007167 28.1653654,51.5602204 28.0058594,51.7607422 C27.9785155,51.7972007 27.9352217,51.8587235 27.8759766,51.9453125 C27.7073559,52.2506526 27.5182302,52.4033203 27.3085938,52.4033203 C27.1445304,52.4033203 27.0283207,52.3531906 26.9599609,52.2529297 C26.8916012,52.1526688 26.8574219,51.9612644 26.8574219,51.6787109 C26.8574219,51.5146476 26.8733722,51.3950199 26.9052734,51.3198242 C26.9371746,51.2446285 26.9964188,51.1637374 27.0830078,51.0771484 C27.3746759,50.7945949 27.7358377,50.5701506 28.1665039,50.4038086 C28.5971701,50.2374666 29.0380837,50.1542969 29.4892578,50.1542969 C30.245772,50.1542969 30.8780899,50.3981095 31.3862305,50.8857422 C31.894371,51.3733748 32.1484375,51.9726527 32.1484375,52.6835938 C32.1484375,53.5768274 31.3737057,54.76399 29.8242188,56.2451172 C29.4277324,56.6142597 29.1246755,56.9036448 28.9150391,57.1132812 L28.0742188,57.9199219 L31.1982422,57.9199219 C31.2164714,57.7239574 31.2700191,57.5747075 31.3588867,57.472168 C31.4477544,57.3696284 31.5673821,57.3183594 31.7177734,57.3183594 C31.8681648,57.3183594 31.9866532,57.3684891 32.0732422,57.46875 C32.1598312,57.5690109 32.203125,57.7057283 32.203125,57.8789062 C32.203125,57.8925782 32.2008464,57.9165037 32.1962891,57.9506836 C32.1917317,57.9848635 32.1894531,58.008789 32.1894531,58.0224609 L32.1347656,58.5488281 C32.1210937,58.6901049 32.0800785,58.8006181 32.0117188,58.8803711 C31.943359,58.9601241 31.8544927,59 31.7451172,59 L27.2197266,59 Z M45.984375,48.1787109 L46.8115234,48.1787109 L46.8115234,62.4453125 L45.984375,62.4453125 L45.984375,48.1787109 Z M21.7714844,85.8486328 L21.7714844,81.2138672 L19.1806641,85.8486328 L21.7714844,85.8486328 Z M21.0332031,89 C20.814452,89 20.6663415,88.9646813 20.5888672,88.894043 C20.5113928,88.8234046 20.4726562,88.6946624 20.4726562,88.5078125 C20.4726562,88.3437492 20.5125322,88.2241215 20.5922852,88.1489258 C20.6720382,88.0737301 20.8007804,88.0361328 20.9785156,88.0361328 L21.7714844,88.0361328 L21.7714844,86.8876953 L18.5791016,86.8876953 C18.4651687,86.8876953 18.3763024,86.8512373 18.3125,86.7783203 C18.2486976,86.7054033 18.2167969,86.6005866 18.2167969,86.4638672 L18.2167969,85.9921875 C18.2167969,85.8098949 18.2828769,85.6184906 18.4150391,85.4179688 C18.4378256,85.3815102 18.4560546,85.3518881 18.4697266,85.3291016 L21.3544922,80.4345703 C21.4182946,80.3206375 21.4707029,80.2477215 21.5117188,80.2158203 C21.5527346,80.1839191 21.6074215,80.1679688 21.6757812,80.1679688 C21.7031251,80.1679688 21.7509762,80.172526 21.8193359,80.1816406 L21.8740234,80.1953125 L22.5712891,80.3046875 C22.6350915,80.3138021 22.6863605,80.3491208 22.7250977,80.4106445 C22.7638348,80.4721683 22.7832031,80.5530594 22.7832031,80.6533203 L22.7832031,85.8486328 L23.1318359,85.8486328 C23.2320969,85.8486328 23.30957,85.8087569 23.3642578,85.7290039 C23.4189456,85.6492509 23.4804684,85.609375 23.5488281,85.609375 C23.6399744,85.609375 23.7174476,85.6435543 23.78125,85.7119141 C23.8450524,85.7802738 23.8769531,85.8645828 23.8769531,85.9648438 C23.8769531,86.0058596 23.8746745,86.0434569 23.8701172,86.0776367 C23.8655599,86.1118166 23.8564454,86.1471352 23.8427734,86.1835938 L23.7880859,86.4638672 C23.7561847,86.6279305 23.709473,86.739583 23.6479492,86.7988281 C23.5864255,86.8580732 23.489584,86.8876953 23.3574219,86.8876953 L22.7832031,86.8876953 L22.7832031,88.0361328 L23.0224609,88.0361328 C23.3141291,88.0361328 23.5146479,88.0714515 23.6240234,88.1420898 C23.733399,88.2127282 23.7880859,88.3346346 23.7880859,88.5078125 C23.7880859,88.6718758 23.7425135,88.7949215 23.6513672,88.8769531 C23.5602209,88.9589848 23.4235035,89 23.2412109,89 L21.0332031,89 Z M30.6650391,84.296875 C31.1982449,84.4427091 31.6118149,84.7081686 31.9057617,85.0932617 C32.1997085,85.4783548 32.3466797,85.9488904 32.3466797,86.5048828 C32.3466797,87.3024128 32.0641304,87.9552383 31.4990234,88.4633789 C30.9339164,88.9715195 30.2024784,89.2255859 29.3046875,89.2255859 C28.6119757,89.2255859 27.9956082,89.0922865 27.4555664,88.8256836 C26.9155246,88.5590807 26.6455078,88.2662776 26.6455078,87.9472656 C26.6455078,87.8105462 26.6944982,87.6977544 26.7924805,87.6088867 C26.8904627,87.5200191 27.0100904,87.4755859 27.1513672,87.4755859 C27.2288415,87.4755859 27.5102515,87.5917957 27.9956055,87.8242188 C28.4809595,88.0566418 28.9332661,88.1728516 29.3525391,88.1728516 C29.8948595,88.1728516 30.335773,88.0179052 30.675293,87.7080078 C31.0148129,87.3981104 31.1845703,86.9970728 31.1845703,86.5048828 C31.1845703,86.0992818 31.0672212,85.7563491 30.8325195,85.4760742 C30.5978178,85.1957994 30.2753927,85.0169275 29.8652344,84.9394531 C29.7421869,84.9166666 29.5804046,84.8984376 29.3798828,84.8847656 C28.9970684,84.8619791 28.8056641,84.7024754 28.8056641,84.40625 C28.8056641,84.1373684 28.9925112,83.9801435 29.3662109,83.9345703 C29.512045,83.9208984 29.632812,83.904948 29.7285156,83.8867188 C30.0839862,83.832031 30.3710927,83.6861991 30.5898438,83.4492188 C30.8085948,83.2122384 30.9179688,82.9251319 30.9179688,82.5878906 C30.9179688,82.1549458 30.78353,81.8017592 30.5146484,81.5283203 C30.2457669,81.2548814 29.9039734,81.1181641 29.4892578,81.1181641 C29.1064434,81.1181641 28.7133809,81.2366525 28.3100586,81.4736328 C27.9067363,81.7106132 27.6549484,81.8291016 27.5546875,81.8291016 C27.4270827,81.8291016 27.3211267,81.7880863 27.2368164,81.7060547 C27.1525061,81.624023 27.1103516,81.521485 27.1103516,81.3984375 C27.1103516,81.1204413 27.3655573,80.8435886 27.8759766,80.5678711 C28.3863958,80.2921536 28.9514943,80.1542969 29.5712891,80.1542969 C30.2822301,80.1542969 30.8735328,80.3696268 31.3452148,80.800293 C31.8168969,81.2309592 32.0527344,81.760739 32.0527344,82.3896484 C32.0527344,82.8681665 31.9399425,83.2623682 31.7143555,83.5722656 C31.4887684,83.882163 31.1389998,84.1236971 30.6650391,84.296875 Z M45.984375,78.1787109 L46.8115234,78.1787109 L46.8115234,92.4453125 L45.984375,92.4453125 L45.984375,78.1787109 Z" id="41-|-|-42-|-43-|" fill="#B9B9B9"></path>
            <path d="M65.3505859,21.1181641 C65.4417322,20.9541007 65.5351558,20.837891 65.6308594,20.7695312 C65.726563,20.7011715 65.84733,20.6669922 65.9931641,20.6669922 C66.2164725,20.6669922 66.3748368,20.7262364 66.4682617,20.8447266 C66.5616867,20.9632167 66.6083984,21.1660142 66.6083984,21.453125 L66.6220703,23.2304688 C66.6220703,23.5449234 66.5708013,23.7568354 66.4682617,23.8662109 C66.3657221,23.9755865 66.1800144,24.0302734 65.9111328,24.0302734 C65.7197256,24.0302734 65.5727544,23.984701 65.4702148,23.8935547 C65.3676753,23.8024084 65.2799483,23.6337903 65.2070312,23.3876953 C65.0885411,22.9547504 64.8994154,22.6437184 64.6396484,22.4545898 C64.3798815,22.2654613 64.0198591,22.1708984 63.5595703,22.1708984 C62.8577439,22.1708984 62.3199888,22.4078752 61.9462891,22.8818359 C61.5725893,23.3557966 61.3857422,24.0416622 61.3857422,24.9394531 C61.3857422,25.8326868 61.5748679,26.5185523 61.953125,26.9970703 C62.3313821,27.4755883 62.8714158,27.7148438 63.5732422,27.7148438 C64.0517602,27.7148438 64.5792614,27.5553401 65.1557617,27.2363281 C65.732262,26.9173161 66.0957024,26.7578125 66.2460938,26.7578125 C66.423829,26.7578125 66.5730788,26.8330071 66.6938477,26.9833984 C66.8146165,27.1337898 66.875,27.3206369 66.875,27.5439453 C66.875,27.944989 66.5218134,28.3232404 65.8154297,28.6787109 C65.1090459,29.0341815 64.3138065,29.2119141 63.4296875,29.2119141 C62.2356711,29.2119141 61.2695349,28.8177123 60.53125,28.0292969 C59.7929651,27.2408815 59.4238281,26.2109439 59.4238281,24.9394531 C59.4238281,23.7135355 59.7975223,22.694991 60.5449219,21.8837891 C61.2923214,21.0725871 62.2402286,20.6669922 63.3886719,20.6669922 C63.7122412,20.6669922 64.0312484,20.7034502 64.3457031,20.7763672 C64.6601578,20.8492842 64.9951154,20.9632154 65.3505859,21.1181641 Z M71.6054688,23.9755859 C71.072263,23.9755859 70.633628,24.1499006 70.2895508,24.4985352 C69.9454735,24.8471697 69.7734375,25.2926405 69.7734375,25.8349609 C69.7734375,26.3818387 69.9454735,26.8341453 70.2895508,27.1918945 C70.633628,27.5496437 71.072263,27.7285156 71.6054688,27.7285156 C72.1386745,27.7285156 72.5784488,27.5496437 72.9248047,27.1918945 C73.2711606,26.8341453 73.4443359,26.3818387 73.4443359,25.8349609 C73.4443359,25.2926405 73.2722999,24.8471697 72.9282227,24.4985352 C72.5841454,24.1499006 72.1432319,23.9755859 71.6054688,23.9755859 Z M71.6054688,22.5332031 C72.7128962,22.5332031 73.6106736,22.8430959 74.2988281,23.4628906 C74.9869826,24.0826854 75.3310547,24.8779248 75.3310547,25.8486328 C75.3310547,26.8238981 74.9869826,27.6214162 74.2988281,28.2412109 C73.6106736,28.8610057 72.7128962,29.1708984 71.6054688,29.1708984 C70.5025987,29.1708984 69.6070998,28.8610057 68.9189453,28.2412109 C68.2307908,27.6214162 67.8867188,26.8238981 67.8867188,25.8486328 C67.8867188,24.8779248 68.2319301,24.0826854 68.9223633,23.4628906 C69.6127964,22.8430959 70.507156,22.5332031 71.6054688,22.5332031 Z M82.9189453,27.5029297 L83.0351562,27.5029297 C83.2812512,27.5029297 83.4658197,27.5655918 83.5888672,27.690918 C83.7119147,27.8162441 83.7734375,27.9996733 83.7734375,28.2412109 C83.7734375,28.5100925 83.7084967,28.7037754 83.5786133,28.8222656 C83.4487298,28.9407558 83.2288427,29 82.9189453,29 L81.8730469,29 C81.7408848,29 81.639486,28.9737958 81.5688477,28.9213867 C81.4982093,28.8689776 81.4628906,28.797201 81.4628906,28.7060547 L81.4628906,28.2275391 C81.2395822,28.5328791 80.9524757,28.766438 80.6015625,28.9282227 C80.2506493,29.0900073 79.8564475,29.1708984 79.4189453,29.1708984 C78.5257117,29.1708984 77.7783233,28.8667023 77.1767578,28.2583008 C76.5751923,27.6498993 76.2744141,26.8899785 76.2744141,25.9785156 C76.2744141,25.0305942 76.5786102,24.2444693 77.1870117,23.6201172 C77.7954132,22.9957651 78.5690057,22.6835938 79.5078125,22.6835938 C79.8313818,22.6835938 80.1469711,22.7371414 80.4545898,22.8442383 C80.7622086,22.9513352 81.0436185,23.1028636 81.2988281,23.2988281 L81.2988281,21.5693359 L80.3896484,21.5693359 C80.0751937,21.5693359 79.8518887,21.5089524 79.7197266,21.3881836 C79.5875644,21.2674148 79.5214844,21.0748711 79.5214844,20.8105469 C79.5214844,20.5416653 79.5875644,20.3479824 79.7197266,20.2294922 C79.8518887,20.111002 80.0751937,20.0517578 80.3896484,20.0517578 L82.515625,20.0517578 C82.6705737,20.0517578 82.7765297,20.0836585 82.8334961,20.1474609 C82.8904625,20.2112633 82.9189453,20.3297517 82.9189453,20.5029297 L82.9189453,27.5029297 Z M79.7128906,24.1396484 C79.2662738,24.1396484 78.8959976,24.3071272 78.6020508,24.6420898 C78.308104,24.9770525 78.1611328,25.4020157 78.1611328,25.9169922 C78.1611328,26.4456407 78.3069647,26.8774397 78.5986328,27.2124023 C78.8903009,27.547365 79.2617165,27.7148438 79.7128906,27.7148438 C80.1640648,27.7148438 80.5366196,27.5462256 80.8305664,27.2089844 C81.1245132,26.8717431 81.2714844,26.4410833 81.2714844,25.9169922 C81.2714844,25.406573 81.1233739,24.9827491 80.8271484,24.6455078 C80.530923,24.3082665 80.1595074,24.1396484 79.7128906,24.1396484 Z M86.5488281,26.2451172 C86.6673183,26.7509791 86.8963199,27.1292305 87.2358398,27.3798828 C87.5753598,27.6305351 88.0276664,27.7558594 88.5927734,27.7558594 C89.1578804,27.7558594 89.7161431,27.6180027 90.2675781,27.3422852 C90.8190132,27.0665676 91.1516921,26.9287109 91.265625,26.9287109 C91.4342456,26.9287109 91.5721023,26.9913731 91.6791992,27.1166992 C91.7862961,27.2420254 91.8398438,27.4026683 91.8398438,27.5986328 C91.8398438,28.0270204 91.5231151,28.3961573 90.8896484,28.7060547 C90.2561817,29.0159521 89.4723354,29.1708984 88.5380859,29.1708984 C87.4352158,29.1708984 86.5385777,28.8610057 85.8481445,28.2412109 C85.1577114,27.6214162 84.8125,26.8238981 84.8125,25.8486328 C84.8125,24.8779248 85.1577114,24.0826854 85.8481445,23.4628906 C86.5385777,22.8430959 87.4352158,22.5332031 88.5380859,22.5332031 C89.5224659,22.5332031 90.3382129,22.8237276 90.9853516,23.4047852 C91.6324902,23.9858427 91.9560547,24.6979125 91.9560547,25.5410156 C91.9560547,25.8098972 91.8911139,25.9944656 91.7612305,26.0947266 C91.631347,26.1949875 91.3636088,26.2451172 90.9580078,26.2451172 L86.5488281,26.2451172 Z M90.2333984,25.1787109 C90.1559241,24.7548807 89.9565446,24.426759 89.6352539,24.1943359 C89.3139632,23.9619129 88.8958359,23.8457031 88.3808594,23.8457031 C87.8841121,23.8457031 87.4842138,23.9562163 87.1811523,24.1772461 C86.8780909,24.3982758 86.6673183,24.7320941 86.5488281,25.1787109 L90.2333984,25.1787109 Z M61.3447266,56.2451172 C61.4632167,56.7509791 61.6922184,57.1292305 62.0317383,57.3798828 C62.3712582,57.6305351 62.8235649,57.7558594 63.3886719,57.7558594 C63.9537789,57.7558594 64.5120415,57.6180027 65.0634766,57.3422852 C65.6149116,57.0665676 65.9475906,56.9287109 66.0615234,56.9287109 C66.2301441,56.9287109 66.3680008,56.9913731 66.4750977,57.1166992 C66.5821945,57.2420254 66.6357422,57.4026683 66.6357422,57.5986328 C66.6357422,58.0270204 66.3190136,58.3961573 65.6855469,58.7060547 C65.0520802,59.0159521 64.2682338,59.1708984 63.3339844,59.1708984 C62.2311143,59.1708984 61.3344761,58.8610057 60.644043,58.2412109 C59.9536098,57.6214162 59.6083984,56.8238981 59.6083984,55.8486328 C59.6083984,54.8779248 59.9536098,54.0826854 60.644043,53.4628906 C61.3344761,52.8430959 62.2311143,52.5332031 63.3339844,52.5332031 C64.3183643,52.5332031 65.1341113,52.8237276 65.78125,53.4047852 C66.4283887,53.9858427 66.7519531,54.6979125 66.7519531,55.5410156 C66.7519531,55.8098972 66.6870124,55.9944656 66.5571289,56.0947266 C66.4272454,56.1949875 66.1595072,56.2451172 65.7539062,56.2451172 L61.3447266,56.2451172 Z M65.0292969,55.1787109 C64.9518225,54.7548807 64.752443,54.426759 64.4311523,54.1943359 C64.1098617,53.9619129 63.6917343,53.8457031 63.1767578,53.8457031 C62.6800105,53.8457031 62.2801122,53.9562163 61.9770508,54.1772461 C61.6739894,54.3982758 61.4632167,54.7320941 61.3447266,55.1787109 L65.0292969,55.1787109 Z M71.2978516,55.2880859 L71.2978516,57.5029297 L72.9111328,57.5029297 C73.2210302,57.5029297 73.4409173,57.5598953 73.5708008,57.6738281 C73.7006842,57.787761 73.765625,57.9768867 73.765625,58.2412109 C73.765625,58.5100925 73.7006842,58.7037754 73.5708008,58.8222656 C73.4409173,58.9407558 73.2210302,59 72.9111328,59 L69.0898438,59 C68.7753891,59 68.552084,58.9407558 68.4199219,58.8222656 C68.2877598,58.7037754 68.2216797,58.5100925 68.2216797,58.2412109 C68.2216797,57.9768867 68.2866204,57.787761 68.4165039,57.6738281 C68.5463874,57.5598953 68.7708317,57.5029297 69.0898438,57.5029297 L69.609375,57.5029297 L69.609375,54.1806641 L69.3154297,54.1806641 C69.0055323,54.1806641 68.7856452,54.1225592 68.6557617,54.0063477 C68.5258783,53.8901361 68.4609375,53.6975925 68.4609375,53.4287109 C68.4609375,53.1598294 68.5235996,52.968425 68.6489258,52.8544922 C68.7742519,52.7405593 68.9964177,52.6835938 69.3154297,52.6835938 L70.7714844,52.6835938 C70.8945319,52.6835938 70.990234,52.7097979 71.0585938,52.762207 C71.1269535,52.8146161 71.1611328,52.8863928 71.1611328,52.9775391 L71.1611328,53.9892578 C71.6578801,53.456052 72.1215799,53.075522 72.5522461,52.8476562 C72.9829123,52.6197905 73.4466121,52.5058594 73.9433594,52.5058594 C74.3945335,52.5058594 74.7522773,52.6072581 75.0166016,52.8100586 C75.2809258,53.0128591 75.4130859,53.2851545 75.4130859,53.6269531 C75.4130859,53.8912774 75.321941,54.1088859 75.1396484,54.2797852 C74.9573559,54.4506844 74.7226577,54.5361328 74.4355469,54.5361328 C74.2304677,54.5361328 73.9877944,54.4609383 73.7075195,54.3105469 C73.4272447,54.1601555 73.2324224,54.0849609 73.1230469,54.0849609 C72.9042958,54.0849609 72.6468114,54.1829417 72.3505859,54.3789062 C72.0543605,54.5748708 71.7034525,54.8779276 71.2978516,55.2880859 Z M79.6992188,55.2880859 L79.6992188,57.5029297 L81.3125,57.5029297 C81.6223974,57.5029297 81.8422845,57.5598953 81.972168,57.6738281 C82.1020514,57.787761 82.1669922,57.9768867 82.1669922,58.2412109 C82.1669922,58.5100925 82.1020514,58.7037754 81.972168,58.8222656 C81.8422845,58.9407558 81.6223974,59 81.3125,59 L77.4912109,59 C77.1767562,59 76.9534512,58.9407558 76.8212891,58.8222656 C76.6891269,58.7037754 76.6230469,58.5100925 76.6230469,58.2412109 C76.6230469,57.9768867 76.6879876,57.787761 76.8178711,57.6738281 C76.9477546,57.5598953 77.1721989,57.5029297 77.4912109,57.5029297 L78.0107422,57.5029297 L78.0107422,54.1806641 L77.7167969,54.1806641 C77.4068995,54.1806641 77.1870124,54.1225592 77.0571289,54.0063477 C76.9272454,53.8901361 76.8623047,53.6975925 76.8623047,53.4287109 C76.8623047,53.1598294 76.9249668,52.968425 77.050293,52.8544922 C77.1756191,52.7405593 77.3977849,52.6835938 77.7167969,52.6835938 L79.1728516,52.6835938 C79.2958991,52.6835938 79.3916012,52.7097979 79.4599609,52.762207 C79.5283207,52.8146161 79.5625,52.8863928 79.5625,52.9775391 L79.5625,53.9892578 C80.0592473,53.456052 80.5229471,53.075522 80.9536133,52.8476562 C81.3842795,52.6197905 81.8479793,52.5058594 82.3447266,52.5058594 C82.7959007,52.5058594 83.1536445,52.6072581 83.4179688,52.8100586 C83.682293,53.0128591 83.8144531,53.2851545 83.8144531,53.6269531 C83.8144531,53.8912774 83.7233082,54.1088859 83.5410156,54.2797852 C83.358723,54.4506844 83.1240249,54.5361328 82.8369141,54.5361328 C82.6318349,54.5361328 82.3891616,54.4609383 82.1088867,54.3105469 C81.8286119,54.1601555 81.6337896,54.0849609 81.5244141,54.0849609 C81.305663,54.0849609 81.0481786,54.1829417 80.7519531,54.3789062 C80.4557277,54.5748708 80.1048197,54.8779276 79.6992188,55.2880859 Z M88.4082031,53.9755859 C87.8749973,53.9755859 87.4363624,54.1499006 87.0922852,54.4985352 C86.7482079,54.8471697 86.5761719,55.2926405 86.5761719,55.8349609 C86.5761719,56.3818387 86.7482079,56.8341453 87.0922852,57.1918945 C87.4363624,57.5496437 87.8749973,57.7285156 88.4082031,57.7285156 C88.9414089,57.7285156 89.3811832,57.5496437 89.7275391,57.1918945 C90.073895,56.8341453 90.2470703,56.3818387 90.2470703,55.8349609 C90.2470703,55.2926405 90.0750343,54.8471697 89.730957,54.4985352 C89.3868798,54.1499006 88.9459662,53.9755859 88.4082031,53.9755859 Z M88.4082031,52.5332031 C89.5156305,52.5332031 90.413408,52.8430959 91.1015625,53.4628906 C91.789717,54.0826854 92.1337891,54.8779248 92.1337891,55.8486328 C92.1337891,56.8238981 91.789717,57.6214162 91.1015625,58.2412109 C90.413408,58.8610057 89.5156305,59.1708984 88.4082031,59.1708984 C87.305333,59.1708984 86.4098342,58.8610057 85.7216797,58.2412109 C85.0335252,57.6214162 84.6894531,56.8238981 84.6894531,55.8486328 C84.6894531,54.8779248 85.0346645,54.0826854 85.7250977,53.4628906 C86.4155308,52.8430959 87.3098903,52.5332031 88.4082031,52.5332031 Z M96.5019531,55.2880859 L96.5019531,57.5029297 L98.1152344,57.5029297 C98.4251318,57.5029297 98.6450189,57.5598953 98.7749023,57.6738281 C98.9047858,57.787761 98.9697266,57.9768867 98.9697266,58.2412109 C98.9697266,58.5100925 98.9047858,58.7037754 98.7749023,58.8222656 C98.6450189,58.9407558 98.4251318,59 98.1152344,59 L94.2939453,59 C93.9794906,59 93.7561856,58.9407558 93.6240234,58.8222656 C93.4918613,58.7037754 93.4257812,58.5100925 93.4257812,58.2412109 C93.4257812,57.9768867 93.490722,57.787761 93.6206055,57.6738281 C93.7504889,57.5598953 93.9749333,57.5029297 94.2939453,57.5029297 L94.8134766,57.5029297 L94.8134766,54.1806641 L94.5195312,54.1806641 C94.2096339,54.1806641 93.9897467,54.1225592 93.8598633,54.0063477 C93.7299798,53.8901361 93.6650391,53.6975925 93.6650391,53.4287109 C93.6650391,53.1598294 93.7277012,52.968425 93.8530273,52.8544922 C93.9783535,52.7405593 94.2005192,52.6835938 94.5195312,52.6835938 L95.9755859,52.6835938 C96.0986334,52.6835938 96.1943356,52.7097979 96.2626953,52.762207 C96.331055,52.8146161 96.3652344,52.8863928 96.3652344,52.9775391 L96.3652344,53.9892578 C96.8619817,53.456052 97.3256814,53.075522 97.7563477,52.8476562 C98.1870139,52.6197905 98.6507137,52.5058594 99.1474609,52.5058594 C99.5986351,52.5058594 99.9563789,52.6072581 100.220703,52.8100586 C100.485027,53.0128591 100.617188,53.2851545 100.617188,53.6269531 C100.617188,53.8912774 100.526043,54.1088859 100.34375,54.2797852 C100.161457,54.4506844 99.9267592,54.5361328 99.6396484,54.5361328 C99.4345693,54.5361328 99.1918959,54.4609383 98.9116211,54.3105469 C98.6313463,54.1601555 98.436524,54.0849609 98.3271484,54.0849609 C98.1083973,54.0849609 97.8509129,54.1829417 97.5546875,54.3789062 C97.2584621,54.5748708 96.9075541,54.8779276 96.5019531,55.2880859 Z M63.2041016,66.2275391 L61.1054688,67.9638672 C61.0690102,67.9957684 61.0268557,68.0208332 60.9790039,68.0390625 C60.9311521,68.0572918 60.8844403,68.0664062 60.8388672,68.0664062 C60.7294916,68.0664062 60.6372074,68.0310876 60.5620117,67.9604492 C60.486816,67.8898108 60.4492188,67.8020839 60.4492188,67.6972656 C60.4492188,67.6380205 60.4651691,67.5719405 60.4970703,67.4990234 C60.5289715,67.4261064 60.574544,67.3577477 60.6337891,67.2939453 L62.7324219,64.8330078 C62.7825523,64.7646481 62.8497717,64.7122398 62.934082,64.6757812 C63.0183923,64.6393227 63.108398,64.6210938 63.2041016,64.6210938 C63.3043625,64.6210938 63.3955074,64.6393227 63.4775391,64.6757812 C63.5595707,64.7122398 63.6279294,64.7646481 63.6826172,64.8330078 L65.7949219,67.2939453 C65.8496096,67.3531904 65.8917642,67.4204098 65.9213867,67.4956055 C65.9510093,67.5708012 65.9658203,67.6425778 65.9658203,67.7109375 C65.9658203,67.8157557 65.928223,67.9034827 65.8530273,67.9741211 C65.7778317,68.0447595 65.6901047,68.0800781 65.5898438,68.0800781 C65.5488279,68.0800781 65.5112306,68.0743816 65.4770508,68.0629883 C65.4428709,68.051595 65.4098309,68.0322267 65.3779297,68.0048828 L63.2041016,66.2275391 Z M63.6416016,82.8818359 L65.1113281,82.8818359 C65.4257828,82.8818359 65.6490879,82.9399408 65.78125,83.0561523 C65.9134121,83.1723639 65.9794922,83.3626289 65.9794922,83.6269531 C65.9794922,83.8912774 65.9122728,84.0826817 65.777832,84.2011719 C65.6433913,84.3196621 65.4212255,84.3789062 65.1113281,84.3789062 L63.6416016,84.3789062 L63.6416016,87.5029297 L65.0019531,87.5029297 C65.3164078,87.5029297 65.5397129,87.5598953 65.671875,87.6738281 C65.8040371,87.787761 65.8701172,87.9768867 65.8701172,88.2412109 C65.8701172,88.5100925 65.8028978,88.7037754 65.668457,88.8222656 C65.5340163,88.9407558 65.3118505,89 65.0019531,89 L61.2353516,89 C60.9208969,89 60.6975918,88.9407558 60.5654297,88.8222656 C60.4332676,88.7037754 60.3671875,88.5100925 60.3671875,88.2412109 C60.3671875,87.9768867 60.4321283,87.787761 60.5620117,87.6738281 C60.6918952,87.5598953 60.9163396,87.5029297 61.2353516,87.5029297 L61.9599609,87.5029297 L61.9599609,84.3789062 L61.2353516,84.3789062 C60.9208969,84.3789062 60.6975918,84.3196621 60.5654297,84.2011719 C60.4332676,84.0826817 60.3671875,83.8912774 60.3671875,83.6269531 C60.3671875,83.3580716 60.4321283,83.1666672 60.5620117,83.0527344 C60.6918952,82.9388015 60.9163396,82.8818359 61.2353516,82.8818359 L61.9599609,82.8818359 L61.9599609,82.4921875 C61.9599609,81.5989539 62.1901019,80.9643573 62.6503906,80.5883789 C63.1106794,80.2124005 63.8945257,80.0244141 65.0019531,80.0244141 C65.5761747,80.0244141 65.9988593,80.0927728 66.2700195,80.2294922 C66.5411797,80.3662116 66.6767578,80.5781236 66.6767578,80.8652344 C66.6767578,81.0566416 66.6163743,81.2093093 66.4956055,81.3232422 C66.3748366,81.437175 66.2119151,81.4941406 66.0068359,81.4941406 C65.8564446,81.4941406 65.6433933,81.473633 65.3676758,81.4326172 C65.0919583,81.3916014 64.8994146,81.3710938 64.7900391,81.3710938 C64.3662088,81.3710938 64.0688485,81.4656566 63.8979492,81.6547852 C63.7270499,81.8439137 63.6416016,82.177732 63.6416016,82.65625 L63.6416016,82.8818359 Z M71.2978516,85.2880859 L71.2978516,87.5029297 L72.9111328,87.5029297 C73.2210302,87.5029297 73.4409173,87.5598953 73.5708008,87.6738281 C73.7006842,87.787761 73.765625,87.9768867 73.765625,88.2412109 C73.765625,88.5100925 73.7006842,88.7037754 73.5708008,88.8222656 C73.4409173,88.9407558 73.2210302,89 72.9111328,89 L69.0898438,89 C68.7753891,89 68.552084,88.9407558 68.4199219,88.8222656 C68.2877598,88.7037754 68.2216797,88.5100925 68.2216797,88.2412109 C68.2216797,87.9768867 68.2866204,87.787761 68.4165039,87.6738281 C68.5463874,87.5598953 68.7708317,87.5029297 69.0898438,87.5029297 L69.609375,87.5029297 L69.609375,84.1806641 L69.3154297,84.1806641 C69.0055323,84.1806641 68.7856452,84.1225592 68.6557617,84.0063477 C68.5258783,83.8901361 68.4609375,83.6975925 68.4609375,83.4287109 C68.4609375,83.1598294 68.5235996,82.968425 68.6489258,82.8544922 C68.7742519,82.7405593 68.9964177,82.6835938 69.3154297,82.6835938 L70.7714844,82.6835938 C70.8945319,82.6835938 70.990234,82.7097979 71.0585938,82.762207 C71.1269535,82.8146161 71.1611328,82.8863928 71.1611328,82.9775391 L71.1611328,83.9892578 C71.6578801,83.456052 72.1215799,83.075522 72.5522461,82.8476562 C72.9829123,82.6197905 73.4466121,82.5058594 73.9433594,82.5058594 C74.3945335,82.5058594 74.7522773,82.6072581 75.0166016,82.8100586 C75.2809258,83.0128591 75.4130859,83.2851545 75.4130859,83.6269531 C75.4130859,83.8912774 75.321941,84.1088859 75.1396484,84.2797852 C74.9573559,84.4506844 74.7226577,84.5361328 74.4355469,84.5361328 C74.2304677,84.5361328 73.9877944,84.4609383 73.7075195,84.3105469 C73.4272447,84.1601555 73.2324224,84.0849609 73.1230469,84.0849609 C72.9042958,84.0849609 72.6468114,84.1829417 72.3505859,84.3789062 C72.0543605,84.5748708 71.7034525,84.8779276 71.2978516,85.2880859 Z M82.7958984,87.5029297 L82.9052734,87.5029297 C83.1513684,87.5029297 83.3393548,87.5678704 83.4692383,87.6977539 C83.5991217,87.8276374 83.6640625,88.0133451 83.6640625,88.2548828 C83.6640625,88.5192071 83.5968431,88.7094721 83.4624023,88.8256836 C83.3279616,88.9418951 83.1057958,89 82.7958984,89 L82.1533203,89 C81.9254546,89 81.7556972,88.9567062 81.644043,88.8701172 C81.5323888,88.7835282 81.4401045,88.6263032 81.3671875,88.3984375 C80.9889304,88.6490898 80.5878927,88.8404941 80.1640625,88.9726562 C79.7402323,89.1048184 79.3118511,89.1708984 78.8789062,89.1708984 C78.1451786,89.1708984 77.568687,88.9886086 77.1494141,88.6240234 C76.7301411,88.2594383 76.5205078,87.7604198 76.5205078,87.1269531 C76.5205078,86.443356 76.791664,85.9124368 77.3339844,85.5341797 C77.8763048,85.1559226 78.6373649,84.9667969 79.6171875,84.9667969 C79.8359386,84.9667969 80.0683581,84.97819 80.3144531,85.0009766 C80.5605481,85.0237631 80.8362615,85.0602211 81.1416016,85.1103516 L81.1416016,84.9804688 C81.1416016,84.5703104 81.0424815,84.2581391 80.8442383,84.0439453 C80.6459951,83.8297515 80.353192,83.7226562 79.9658203,83.7226562 C79.6650376,83.7226562 79.2810896,83.8343088 78.8139648,84.0576172 C78.3468401,84.2809256 78.0039073,84.3925781 77.7851562,84.3925781 C77.5709625,84.3925781 77.3977871,84.329916 77.265625,84.2045898 C77.1334629,84.0792637 77.0673828,83.9140635 77.0673828,83.7089844 C77.0673828,83.3398419 77.3373996,83.0470388 77.8774414,82.8305664 C78.4174832,82.614094 79.1523391,82.5058594 80.0820312,82.5058594 C81.0527392,82.5058594 81.7477193,82.6927065 82.1669922,83.0664062 C82.5862651,83.440106 82.7958984,84.0735632 82.7958984,84.9667969 L82.7958984,87.5029297 Z M81.1416016,86.1835938 C80.9137358,86.1334633 80.7041025,86.095866 80.5126953,86.0708008 C80.3212881,86.0457356 80.1435555,86.0332031 79.9794922,86.0332031 C79.4781876,86.0332031 79.0851251,86.1175122 78.800293,86.2861328 C78.5154608,86.4547534 78.3730469,86.687173 78.3730469,86.9833984 C78.3730469,87.2477227 78.4641918,87.4493808 78.6464844,87.5883789 C78.828777,87.727377 79.0908186,87.796875 79.4326172,87.796875 C79.7470719,87.796875 80.0432929,87.7513025 80.3212891,87.6601562 C80.5992852,87.56901 80.87272,87.4277353 81.1416016,87.2363281 L81.1416016,86.1835938 Z M88.1142578,83.9619141 C87.667641,83.9619141 87.2973648,84.1236963 87.003418,84.4472656 C86.7094712,84.770835 86.5625,85.1832657 86.5625,85.6845703 C86.5625,86.1767603 86.7094712,86.5834945 87.003418,86.9047852 C87.2973648,87.2260758 87.667641,87.3867188 88.1142578,87.3867188 C88.5654319,87.3867188 88.9379868,87.2260758 89.2319336,86.9047852 C89.5258804,86.5834945 89.6728516,86.1767603 89.6728516,85.6845703 C89.6728516,85.1832657 89.5258804,84.770835 89.2319336,84.4472656 C88.9379868,84.1236963 88.5654319,83.9619141 88.1142578,83.9619141 Z M89.8095703,83.3193359 L89.8095703,82.9638672 C89.8095703,82.8727209 89.8426103,82.8032229 89.9086914,82.7553711 C89.9747725,82.7075193 90.0738926,82.6835938 90.2060547,82.6835938 L91.3203125,82.6835938 C91.6347672,82.6835938 91.8557936,82.7416986 91.9833984,82.8579102 C92.1110032,82.9741217 92.1748047,83.1643867 92.1748047,83.4287109 C92.1748047,83.6748059 92.1121426,83.861653 91.9868164,83.9892578 C91.8614903,84.1168626 91.6780611,84.1806641 91.4365234,84.1806641 L91.3203125,84.1806641 L91.3203125,88.890625 C91.3203125,89.8886769 91.0491564,90.613279 90.5068359,91.0644531 C89.9645155,91.5156273 89.0940815,91.7412109 87.8955078,91.7412109 C87.1526656,91.7412109 86.6069353,91.668295 86.2583008,91.5224609 C85.9096662,91.3766269 85.7353516,91.1464859 85.7353516,90.8320312 C85.7353516,90.6132802 85.8059889,90.4355476 85.9472656,90.2988281 C86.0885424,90.1621087 86.2753895,90.09375 86.5078125,90.09375 C86.5670576,90.09375 86.7630192,90.1142576 87.0957031,90.1552734 C87.4283871,90.1962893 87.7360012,90.2167969 88.0185547,90.2167969 C88.6702507,90.2167969 89.1202787,90.0937512 89.3686523,89.8476562 C89.617026,89.6015613 89.7412109,89.1595084 89.7412109,88.5214844 L89.7412109,88.2138672 C89.4176416,88.4007171 89.0974951,88.5385738 88.7807617,88.6274414 C88.4640284,88.716309 88.1347673,88.7607422 87.7929688,88.7607422 C86.8769485,88.7607422 86.1284209,88.474775 85.5473633,87.902832 C84.9663057,87.3308891 84.6757812,86.5960331 84.6757812,85.6982422 C84.6757812,84.7731074 84.9799774,84.0120473 85.5883789,83.4150391 C86.1967804,82.8180309 86.9749302,82.5195312 87.9228516,82.5195312 C88.3330099,82.5195312 88.6930323,82.584472 89.0029297,82.7143555 C89.3128271,82.8442389 89.5817046,83.0458971 89.8095703,83.3193359 Z M97.2470703,83.1484375 C97.4384775,82.9433583 97.659504,82.7872727 97.9101562,82.6801758 C98.1608085,82.5730789 98.4296861,82.5195312 98.7167969,82.5195312 C99.3365916,82.5195312 99.7832018,82.7029604 100.056641,83.0698242 C100.330079,83.436688 100.466797,84.0507769 100.466797,84.9121094 L100.466797,87.5029297 L100.5625,87.5029297 C100.776694,87.5029297 100.937337,87.5655918 101.044434,87.690918 C101.15153,87.8162441 101.205078,87.9996733 101.205078,88.2412109 C101.205078,88.5146498 101.149252,88.7094721 101.037598,88.8256836 C100.925943,88.9418951 100.735678,89 100.466797,89 L99.3046875,89 C99.18164,89 99.0859378,88.9737958 99.0175781,88.9213867 C98.9492184,88.8689776 98.9150391,88.797201 98.9150391,88.7060547 L98.9150391,84.84375 C98.9150391,84.5384099 98.867188,84.3105476 98.7714844,84.1601562 C98.6757808,84.0097649 98.5367848,83.9345703 98.3544922,83.9345703 C98.1266265,83.9345703 97.9500332,84.035969 97.824707,84.2387695 C97.6993809,84.44157 97.6367188,84.7320945 97.6367188,85.1103516 L97.6367188,87.5029297 L97.7392578,87.5029297 C97.9488943,87.5029297 98.1083979,87.5655918 98.2177734,87.690918 C98.327149,87.8162441 98.3818359,87.9996733 98.3818359,88.2412109 C98.3818359,88.5146498 98.3248704,88.7094721 98.2109375,88.8256836 C98.0970046,88.9418951 97.9056003,89 97.6367188,89 L96.4746094,89 C96.3515619,89 96.2535811,88.9737958 96.1806641,88.9213867 C96.107747,88.8689776 96.0712891,88.797201 96.0712891,88.7060547 L96.0712891,84.84375 C96.0712891,84.5384099 96.0257166,84.3105476 95.9345703,84.1601562 C95.843424,84.0097649 95.7067066,83.9345703 95.5244141,83.9345703 C95.2965483,83.9345703 95.1176764,84.0371083 94.987793,84.2421875 C94.8579095,84.4472667 94.7929688,84.7366518 94.7929688,85.1103516 L94.7929688,87.5029297 L94.8955078,87.5029297 C95.1097016,87.5029297 95.2703445,87.5644525 95.3774414,87.6875 C95.4845383,87.8105475 95.5380859,87.995116 95.5380859,88.2412109 C95.5380859,88.5146498 95.4811204,88.7094721 95.3671875,88.8256836 C95.2532546,88.9418951 95.0618503,89 94.7929688,89 L93.2412109,89 C92.9768867,89 92.787761,88.9407558 92.6738281,88.8222656 C92.5598953,88.7037754 92.5029297,88.5100925 92.5029297,88.2412109 C92.5029297,87.9996733 92.5564773,87.8162441 92.6635742,87.690918 C92.7706711,87.5655918 92.931314,87.5029297 93.1455078,87.5029297 L93.2412109,87.5029297 L93.2412109,84.1806641 L93.1455078,84.1806641 C92.931314,84.1806641 92.7683925,84.1157233 92.6567383,83.9858398 C92.5450841,83.8559564 92.4892578,83.6702486 92.4892578,83.4287109 C92.4892578,83.1643867 92.5473627,82.9741217 92.6635742,82.8579102 C92.7797857,82.7416986 92.9723294,82.6835938 93.2412109,82.6835938 L94.1640625,82.6835938 C94.3509124,82.6835938 94.477376,82.721191 94.543457,82.7963867 C94.6095381,82.8715824 94.6425781,83.016275 94.6425781,83.2304688 C94.8111988,82.9980457 95.0139962,82.8214524 95.2509766,82.7006836 C95.4879569,82.5799148 95.7522772,82.5195312 96.0439453,82.5195312 C96.3082696,82.5195312 96.5384105,82.5708003 96.734375,82.6733398 C96.9303395,82.7758794 97.1012362,82.9342437 97.2470703,83.1484375 Z M103.351562,86.2451172 C103.470053,86.7509791 103.699054,87.1292305 104.038574,87.3798828 C104.378094,87.6305351 104.830401,87.7558594 105.395508,87.7558594 C105.960615,87.7558594 106.518877,87.6180027 107.070312,87.3422852 C107.621748,87.0665676 107.954427,86.9287109 108.068359,86.9287109 C108.23698,86.9287109 108.374837,86.9913731 108.481934,87.1166992 C108.58903,87.2420254 108.642578,87.4026683 108.642578,87.5986328 C108.642578,88.0270204 108.32585,88.3961573 107.692383,88.7060547 C107.058916,89.0159521 106.27507,89.1708984 105.34082,89.1708984 C104.23795,89.1708984 103.341312,88.8610057 102.650879,88.2412109 C101.960446,87.6214162 101.615234,86.8238981 101.615234,85.8486328 C101.615234,84.8779248 101.960446,84.0826854 102.650879,83.4628906 C103.341312,82.8430959 104.23795,82.5332031 105.34082,82.5332031 C106.3252,82.5332031 107.140947,82.8237276 107.788086,83.4047852 C108.435225,83.9858427 108.758789,84.6979125 108.758789,85.5410156 C108.758789,85.8098972 108.693848,85.9944656 108.563965,86.0947266 C108.434081,86.1949875 108.166343,86.2451172 107.760742,86.2451172 L103.351562,86.2451172 Z M107.036133,85.1787109 C106.958658,84.7548807 106.759279,84.426759 106.437988,84.1943359 C106.116698,83.9619129 105.69857,83.8457031 105.183594,83.8457031 C104.686846,83.8457031 104.286948,83.9562163 103.983887,84.1772461 C103.680825,84.3982758 103.470053,84.7320941 103.351562,85.1787109 L107.036133,85.1787109 Z M116.483398,87.4892578 L116.572266,87.4892578 C116.827475,87.4892578 117.01888,87.5519199 117.146484,87.6772461 C117.274089,87.8025722 117.337891,87.9905586 117.337891,88.2412109 C117.337891,88.5100925 117.27295,88.7037754 117.143066,88.8222656 C117.013183,88.9407558 116.793296,89 116.483398,89 L114.801758,89 C114.496418,89 114.276531,88.9407558 114.14209,88.8222656 C114.007649,88.7037754 113.94043,88.5100925 113.94043,88.2412109 C113.94043,87.9905586 114.00537,87.8025722 114.135254,87.6772461 C114.265137,87.5519199 114.45996,87.4892578 114.719727,87.4892578 L114.801758,87.4892578 L114.801758,85.5136719 C114.801758,84.9667941 114.725424,84.5782889 114.572754,84.3481445 C114.420084,84.1180002 114.166017,84.0029297 113.810547,84.0029297 C113.43229,84.0029297 113.123536,84.1407864 112.884277,84.4165039 C112.645018,84.6922214 112.525391,85.0579404 112.525391,85.5136719 L112.525391,87.4892578 L112.607422,87.4892578 C112.867189,87.4892578 113.060872,87.5519199 113.188477,87.6772461 C113.316081,87.8025722 113.379883,87.9905586 113.379883,88.2412109 C113.379883,88.5100925 113.313803,88.7037754 113.181641,88.8222656 C113.049479,88.9407558 112.830731,89 112.525391,89 L110.830078,89 C110.524738,89 110.30599,88.9407558 110.173828,88.8222656 C110.041666,88.7037754 109.975586,88.5100925 109.975586,88.2412109 C109.975586,87.9905586 110.039387,87.8025722 110.166992,87.6772461 C110.294597,87.5519199 110.48828,87.4892578 110.748047,87.4892578 L110.830078,87.4892578 L110.830078,84.1806641 L110.713867,84.1806641 C110.467772,84.1806641 110.280925,84.1180019 110.15332,83.9926758 C110.025716,83.8673496 109.961914,83.6839205 109.961914,83.4423828 C109.961914,83.1735013 110.027994,82.9798183 110.160156,82.8613281 C110.292318,82.7428379 110.515623,82.6835938 110.830078,82.6835938 L111.992188,82.6835938 C112.119792,82.6835938 112.216634,82.7086586 112.282715,82.7587891 C112.348796,82.8089195 112.381836,82.8818355 112.381836,82.9775391 L112.381836,83.5107422 C112.591472,83.1826155 112.859211,82.9353849 113.185059,82.769043 C113.510907,82.602701 113.888019,82.5195312 114.316406,82.5195312 C115.045577,82.5195312 115.589028,82.7405577 115.946777,83.1826172 C116.304527,83.6246767 116.483398,84.2991491 116.483398,85.2060547 L116.483398,87.4892578 Z M121.541992,83.0664062 L123.626953,83.0664062 C123.941408,83.0664062 124.164713,83.1233718 124.296875,83.2373047 C124.429037,83.3512375 124.495117,83.5403633 124.495117,83.8046875 C124.495117,84.0735691 124.427898,84.267252 124.293457,84.3857422 C124.159016,84.5042324 123.936851,84.5634766 123.626953,84.5634766 L121.541992,84.5634766 L121.541992,86.3134766 C121.541992,86.8056665 121.617187,87.1429027 121.767578,87.3251953 C121.91797,87.5074879 122.18229,87.5986328 122.560547,87.5986328 C122.916017,87.5986328 123.335284,87.4960948 123.818359,87.2910156 C124.301435,87.0859365 124.624999,86.9833984 124.789062,86.9833984 C124.975912,86.9833984 125.136555,87.0574537 125.270996,87.2055664 C125.405437,87.3536791 125.472656,87.532551 125.472656,87.7421875 C125.472656,88.0931007 125.154788,88.4132473 124.519043,88.7026367 C123.883298,88.9920262 123.162113,89.1367188 122.355469,89.1367188 C121.886065,89.1367188 121.473635,89.0729173 121.118164,88.9453125 C120.762694,88.8177077 120.482423,88.6354179 120.277344,88.3984375 C120.126952,88.2161449 120.019857,87.9973971 119.956055,87.7421875 C119.892252,87.4869779 119.860352,87.0608754 119.860352,86.4638672 L119.860352,84.5634766 L119.217773,84.5634766 C118.907876,84.5634766 118.687989,84.5042324 118.558105,84.3857422 C118.428222,84.267252 118.363281,84.0735691 118.363281,83.8046875 C118.363281,83.5358059 118.427083,83.3455409 118.554688,83.2338867 C118.682292,83.1222325 118.903319,83.0664062 119.217773,83.0664062 L119.860352,83.0664062 L119.860352,81.4667969 C119.860352,81.1523422 119.925292,80.9313157 120.055176,80.8037109 C120.185059,80.6761061 120.400389,80.6123047 120.701172,80.6123047 C121.001955,80.6123047 121.217285,80.6761061 121.347168,80.8037109 C121.477051,80.9313157 121.541992,81.1523422 121.541992,81.4667969 L121.541992,83.0664062 Z" id="Code-error-^-fragmen" fill="#000000"></path>
            <use id="Rectangle-Copy-2" stroke="#979797" mask="url(#mask-2)" stroke-width="2" xlink:href="#path-1"></use>
        </g>
    </g>
</svg>